HIERARCHY
ROOT pelvis
{
	OFFSET 0.000000 0.000000 0.649646
	CHANNELS 6 Xposition Yposition Zposition Xrotation Yrotation Zrotation
	JOINT spine
	{
		OFFSET 0.000000 0.000000 0.000000
		CHANNELS 6 Xposition Yposition Zposition Xrotation Yrotation Zrotation
		JOINT spine.001
		{
			OFFSET 0.000000 -0.011547 0.220338
			CHANNELS 3 Xrotation Yrotation Zrotation
			JOINT neck
			{
				OFFSET 0.000000 0.026889 0.218996
				CHANNELS 6 Xposition Yposition Zposition Xrotation Yrotation Zrotation
				JOINT face
				{
					OFFSET 0.000000 0.002647 0.151644
					CHANNELS 6 Xposition Yposition Zposition Xrotation Yrotation Zrotation
					End Site
					{
						OFFSET 0.000000 -0.023203 -0.006534
					}
				}
			}
			JOINT shoulder.L
			{
				OFFSET 0.000000 0.026889 0.218996
				CHANNELS 6 Xposition Yposition Zposition Yrotation Xrotation Zrotation
				JOINT upper_arm.L
				{
					OFFSET 0.140893 0.000000 0.000000
					CHANNELS 6 Xposition Yposition Zposition Xrotation Yrotation Zrotation
					JOINT forearm.L
					{
						OFFSET 0.213785 0.000097 0.000804
						CHANNELS 6 Xposition Yposition Zposition Xrotation Yrotation Zrotation
						End Site
						{
							OFFSET 0.164624 -0.002785 -0.001104
						}
					}
				}
			}
			JOINT shoulder.R
			{
				OFFSET 0.000000 0.026889 0.218996
				CHANNELS 6 Xposition Yposition Zposition Yrotation Xrotation Zrotation
				JOINT upper_arm.R
				{
					OFFSET -0.140893 0.000000 0.000000
					CHANNELS 6 Xposition Yposition Zposition Xrotation Yrotation Zrotation
					JOINT forearm.R
					{
						OFFSET -0.225596 0.000097 0.000804
						CHANNELS 6 Xposition Yposition Zposition Xrotation Yrotation Zrotation
						End Site
						{
							OFFSET -0.163367 -0.002763 -0.001104
						}
					}
				}
			}
		}
	}
	JOINT pelvis.L
	{
		OFFSET 0.000000 0.000000 0.000000
		CHANNELS 6 Xposition Yposition Zposition Yrotation Xrotation Zrotation
		End Site
		{
			OFFSET 0.091656 0.000000 0.000000
		}
	}
	JOINT pelvis.R
	{
		OFFSET 0.000000 0.000000 0.000000
		CHANNELS 6 Xposition Yposition Zposition Yrotation Xrotation Zrotation
		End Site
		{
			OFFSET -0.091656 0.000000 0.000000
		}
	}
	JOINT thigh.L
	{
		OFFSET 0.091656 0.000000 0.000000
		CHANNELS 6 Xposition Yposition Zposition Xrotation Yrotation Zrotation
		JOINT shin.L
		{
			OFFSET 0.015923 0.000000 -0.303835
			CHANNELS 6 Xposition Yposition Zposition Xrotation Yrotation Zrotation
			JOINT foot.L
			{
				OFFSET 0.014650 0.000000 -0.279542
				CHANNELS 3 Xrotation Yrotation Zrotation
				End Site
				{
					OFFSET 0.014826 -0.151169 -0.063478
				}
			}
			JOINT heel.02.L
			{
				OFFSET 0.014650 0.000000 -0.279542
				CHANNELS 3 Xrotation Yrotation Zrotation
				End Site
				{
					OFFSET -0.075834 0.028926 -0.069532
				}
			}
		}
	}
	JOINT thigh.R
	{
		OFFSET -0.091656 0.000000 0.000000
		CHANNELS 6 Xposition Yposition Zposition Xrotation Yrotation Zrotation
		JOINT shin.R
		{
			OFFSET -0.016083 0.000000 -0.306873
			CHANNELS 6 Xposition Yposition Zposition Xrotation Yrotation Zrotation
			JOINT foot.R
			{
				OFFSET -0.014609 0.000000 -0.278747
				CHANNELS 3 Xrotation Yrotation Zrotation
				End Site
				{
					OFFSET -0.014836 -0.151268 -0.063520
				}
			}
			JOINT heel.02.R
			{
				OFFSET -0.014609 0.000000 -0.278747
				CHANNELS 3 Xrotation Yrotation Zrotation
				End Site
				{
					OFFSET 0.068913 0.028926 -0.066921
				}
			}
		}
	}
}
MOTION
Frames: 4
Frame Time: 0.041667
-0.037080 -0.018015 0.633655 -0.000000 0.000000 -10.210139 0.000000 0.000000 -0.000000 -1.324142 1.012747 0.064819 9.999373 -0.092767 -0.755546 -0.000000 0.026889 0.218996 9.108737 -5.002652 -7.449678 0.000000 0.002647 0.151644 -8.671387 0.000001 0.000004 -0.000000 0.026889 0.218996 -2.014254 0.004347 0.247295 0.140893 0.000000 -0.000000 -16.016811 71.667379 21.944662 0.213785 0.000097 0.000804 7.308309 39.563058 -18.489985 0.000000 0.026889 0.218996 -1.963359 0.004130 0.241000 -0.140893 0.000000 0.000000 -42.785343 -66.157588 -61.839829 -0.225596 0.000097 0.000804 13.070149 -41.767150 31.940198 0.000000 0.000000 -0.000000 -1.715322 -0.000001 -0.000039 0.000000 0.000000 -0.000000 -1.715322 -0.000000 -0.000002 0.091615 -0.000000 0.002744 5.610821 5.068925 0.045841 0.015923 0.000000 -0.303835 5.600006 -7.963061 0.681309 -13.964860 -0.513184 -1.638808 2.676734 -33.620848 -23.922399 -0.091615 0.000000 -0.002744 5.188992 -8.861959 0.130773 -0.016083 -0.000000 -0.306873 3.607873 3.379056 -0.295142 -11.141942 -0.100225 2.304313 3.198132 31.342095 22.245144 
-0.036079 -0.017385 0.634782 -0.000000 0.000000 -10.422907 -0.000000 0.000000 -0.000000 -1.299287 0.960435 0.061263 9.999522 -0.085797 -0.698725 -0.000000 0.026889 0.218996 8.622030 -5.262761 -7.137044 -0.000000 0.002647 0.151644 -8.388621 0.000001 -0.000000 0.000000 0.026889 0.218996 -2.211152 0.005241 0.271483 0.140893 -0.000000 -0.000000 -16.320489 71.794905 22.306030 0.213785 0.000097 0.000804 8.175213 39.450585 -20.934847 0.000000 0.026889 0.218996 -2.160255 0.004999 0.265205 -0.140893 0.000000 0.000000 -42.750830 -65.059533 -62.854987 -0.225596 0.000097 0.000804 14.544019 -41.970406 35.357489 0.000000 0.000000 -0.000000 -1.703841 -0.000000 -0.000020 0.000000 0.000000 -0.000000 -1.703803 -0.000000 0.000000 0.091616 -0.000000 0.002725 5.528063 5.235928 0.037067 0.015923 -0.000000 -0.303835 5.802555 -7.836229 0.699601 -13.872176 -0.845775 -1.041179 2.412516 -33.517186 -23.562127 -0.091616 0.000000 -0.002725 5.189637 -8.794616 0.127700 -0.016083 0.000000 -0.306873 3.203584 3.658846 -0.269833 -11.521983 -0.392152 2.899451 3.617927 31.557619 22.803350 
-0.035292 -0.016807 0.635511 -0.000000 0.000000 -10.710642 -0.000000 -0.000000 -0.000000 -1.318726 0.946049 0.060506 9.999401 -0.087779 -0.714964 -0.000000 0.026889 0.218996 8.519967 -5.442534 -7.076029 0.000000 0.002647 0.151644 -8.307833 0.000001 -0.000000 -0.000000 0.026889 0.218996 -2.324498 0.005788 0.285327 0.140893 -0.000000 0.000000 -16.643294 71.805984 22.738345 0.213785 0.000097 0.000804 8.750831 39.399004 -22.541183 -0.000000 0.026889 0.218996 -2.273602 0.005537 0.279056 -0.140893 -0.000000 -0.000000 -42.601785 -64.278179 -63.424221 -0.225596 0.000097 0.000804 15.169464 -42.393058 36.461520 0.000000 0.000000 -0.000000 -1.694932 -0.000000 0.000016 0.000000 0.000000 -0.000000 -1.694932 -0.000000 0.000002 0.091616 0.000000 0.002711 5.476181 5.371750 0.030198 0.015923 0.000000 -0.303835 5.945969 -7.744826 0.712200 -13.846489 -1.144002 -0.514379 2.233174 -33.394181 -23.266776 -0.091616 -0.000000 -0.002711 5.149318 -8.718491 0.123247 -0.016083 -0.000000 -0.306873 2.955802 3.837085 -0.253530 -11.847171 -0.697932 3.504364 3.883001 31.779012 23.229345 
-0.034786 -0.016303 0.635795 -0.000000 0.000000 -11.068249 0.000000 0.000000 0.000000 -1.365694 0.975616 0.062801 9.999400 -0.093912 -0.764826 0.000000 0.026889 0.218996 8.710799 -5.545130 -7.253956 -0.000000 0.002647 0.151644 -8.401868 -0.000002 0.000004 0.000000 0.026889 0.218996 -2.349589 0.005914 0.288420 0.140893 -0.000000 -0.000000 -16.891900 71.727006 23.106895 0.213785 0.000097 0.000804 8.978108 39.430808 -23.138787 0.000000 0.026889 0.218996 -2.298739 0.005660 0.282168 -0.140893 -0.000000 0.000000 -42.462859 -63.936991 -63.577088 -0.225596 0.000097 0.000804 14.838502 -42.933579 35.179805 0.000000 0.000000 0.000000 -1.684607 0.000001 0.000039 0.000000 0.000000 0.000000 -1.684643 -0.000000 -0.000001 0.091617 -0.000000 0.002695 5.445075 5.470534 0.025307 0.015923 -0.000000 -0.303835 6.055863 -7.687548 0.722372 -13.922006 -1.404202 -0.073467 2.152248 -33.264572 -23.062906 -0.091617 0.000000 -0.002695 5.077487 -8.637710 0.117903 -0.016083 -0.000000 -0.306873 2.870924 3.901173 -0.247844 -12.068443 -0.990014 4.065002 3.983071 32.002626 23.513242 
